%TF.GenerationSoftware,KiCad,Pcbnew,9.0.4*%
%TF.CreationDate,2025-09-10T16:43:47+09:00*%
%TF.ProjectId,Z80______,5a3830de-a4b3-4f33-965c-2e6b69636164,rev?*%
%TF.SameCoordinates,Original*%
%TF.FileFunction,Soldermask,Bot*%
%TF.FilePolarity,Negative*%
%FSLAX46Y46*%
G04 Gerber Fmt 4.6, Leading zero omitted, Abs format (unit mm)*
G04 Created by KiCad (PCBNEW 9.0.4) date 2025-09-10 16:43:47*
%MOMM*%
%LPD*%
G01*
G04 APERTURE LIST*
G04 Aperture macros list*
%AMRoundRect*
0 Rectangle with rounded corners*
0 $1 Rounding radius*
0 $2 $3 $4 $5 $6 $7 $8 $9 X,Y pos of 4 corners*
0 Add a 4 corners polygon primitive as box body*
4,1,4,$2,$3,$4,$5,$6,$7,$8,$9,$2,$3,0*
0 Add four circle primitives for the rounded corners*
1,1,$1+$1,$2,$3*
1,1,$1+$1,$4,$5*
1,1,$1+$1,$6,$7*
1,1,$1+$1,$8,$9*
0 Add four rect primitives between the rounded corners*
20,1,$1+$1,$2,$3,$4,$5,0*
20,1,$1+$1,$4,$5,$6,$7,0*
20,1,$1+$1,$6,$7,$8,$9,0*
20,1,$1+$1,$8,$9,$2,$3,0*%
G04 Aperture macros list end*
%ADD10C,1.400000*%
%ADD11R,1.800000X1.800000*%
%ADD12C,1.800000*%
%ADD13R,1.500000X1.500000*%
%ADD14C,1.600000*%
%ADD15R,1.600000X1.600000*%
%ADD16RoundRect,0.250000X0.550000X0.550000X-0.550000X0.550000X-0.550000X-0.550000X0.550000X-0.550000X0*%
%ADD17RoundRect,0.250000X-0.550000X-0.550000X0.550000X-0.550000X0.550000X0.550000X-0.550000X0.550000X0*%
%ADD18R,1.700000X1.700000*%
%ADD19C,1.700000*%
%ADD20C,2.340000*%
%ADD21C,2.000000*%
%ADD22RoundRect,0.250000X0.550000X-0.550000X0.550000X0.550000X-0.550000X0.550000X-0.550000X-0.550000X0*%
G04 APERTURE END LIST*
D10*
%TO.C,R47*%
X144800000Y-160690000D03*
X144800000Y-168310000D03*
%TD*%
%TO.C,R10*%
X74470000Y-34290000D03*
X74470000Y-41910000D03*
%TD*%
%TO.C,R28*%
X38735000Y-114191143D03*
X46355000Y-114191143D03*
%TD*%
D11*
%TO.C,IORQ*%
X34095000Y-120038800D03*
D12*
X36635000Y-120038800D03*
%TD*%
D10*
%TO.C,R30*%
X38735000Y-121158000D03*
X46355000Y-121158000D03*
%TD*%
D13*
%TO.C,BUSRQ*%
X29743400Y-64770000D03*
D14*
X29743400Y-62230000D03*
X29743400Y-67310000D03*
%TD*%
D15*
%TO.C,RN7*%
X135890000Y-147193000D03*
D14*
X135890000Y-149733000D03*
X135890000Y-152273000D03*
X135890000Y-154813000D03*
X135890000Y-157353000D03*
X135890000Y-159893000D03*
X135890000Y-162433000D03*
X135890000Y-164973000D03*
X135890000Y-167513000D03*
%TD*%
D16*
%TO.C,100uF*%
X41859200Y-46939200D03*
D14*
X39859200Y-46939200D03*
%TD*%
D15*
%TO.C,RN2*%
X54356000Y-80010000D03*
D14*
X56896000Y-80010000D03*
X59436000Y-80010000D03*
X61976000Y-80010000D03*
X64516000Y-80010000D03*
X67056000Y-80010000D03*
X69596000Y-80010000D03*
X72136000Y-80010000D03*
X74676000Y-80010000D03*
%TD*%
D15*
%TO.C,RN4*%
X155879800Y-78968600D03*
D14*
X155879800Y-81508600D03*
X155879800Y-84048600D03*
X155879800Y-86588600D03*
X155879800Y-89128600D03*
X155879800Y-91668600D03*
X155879800Y-94208600D03*
X155879800Y-96748600D03*
X155879800Y-99288600D03*
%TD*%
D10*
%TO.C,R44*%
X154250000Y-168310000D03*
X154250000Y-160690000D03*
%TD*%
%TO.C,R12*%
X68224000Y-34290000D03*
X68224000Y-41910000D03*
%TD*%
D17*
%TO.C,0.01uF*%
X44805600Y-138404600D03*
D14*
X46805600Y-138404600D03*
%TD*%
D17*
%TO.C,10uF*%
X36281300Y-75311000D03*
D14*
X38281300Y-75311000D03*
%TD*%
D11*
%TO.C,M1*%
X34095000Y-97938800D03*
D12*
X36635000Y-97938800D03*
%TD*%
D11*
%TO.C,D1*%
X165331000Y-29591000D03*
D12*
X165331000Y-32131000D03*
%TD*%
D11*
%TO.C,A2*%
X105945000Y-29591000D03*
D12*
X105945000Y-32131000D03*
%TD*%
D10*
%TO.C,R48*%
X141650000Y-168310000D03*
X141650000Y-160690000D03*
%TD*%
D11*
%TO.C,O2*%
X146040000Y-172970000D03*
D12*
X146040000Y-170430000D03*
%TD*%
D10*
%TO.C,R26*%
X38735000Y-107224286D03*
X46355000Y-107224286D03*
%TD*%
D17*
%TO.C,74HCT244-5*%
X118745000Y-89535000D03*
D14*
X118745000Y-92075000D03*
X118745000Y-94615000D03*
X118745000Y-97155000D03*
X118745000Y-99695000D03*
X118745000Y-102235000D03*
X118745000Y-104775000D03*
X118745000Y-107315000D03*
X118745000Y-109855000D03*
X118745000Y-112395000D03*
X126365000Y-112395000D03*
X126365000Y-109855000D03*
X126365000Y-107315000D03*
X126365000Y-104775000D03*
X126365000Y-102235000D03*
X126365000Y-99695000D03*
X126365000Y-97155000D03*
X126365000Y-94615000D03*
X126365000Y-92075000D03*
X126365000Y-89535000D03*
%TD*%
D10*
%TO.C,R2*%
X99670000Y-34290000D03*
X99670000Y-41910000D03*
%TD*%
D15*
%TO.C,RN1*%
X111252000Y-81534000D03*
D14*
X113792000Y-81534000D03*
X116332000Y-81534000D03*
X118872000Y-81534000D03*
X121412000Y-81534000D03*
X123952000Y-81534000D03*
X126492000Y-81534000D03*
X129032000Y-81534000D03*
X131572000Y-81534000D03*
%TD*%
D10*
%TO.C,R7*%
X83920000Y-34290000D03*
X83920000Y-41910000D03*
%TD*%
D18*
%TO.C,PB*%
X173355000Y-172593000D03*
D19*
X173355000Y-170053000D03*
X173355000Y-167513000D03*
X173355000Y-164973000D03*
X173355000Y-162433000D03*
X173355000Y-159893000D03*
X173355000Y-157353000D03*
X173355000Y-154813000D03*
X173355000Y-152273000D03*
X173355000Y-149733000D03*
%TD*%
D11*
%TO.C,O5*%
X159300000Y-172970000D03*
D12*
X159300000Y-170430000D03*
%TD*%
D11*
%TO.C,MREQ*%
X34095000Y-115618800D03*
D12*
X36635000Y-115618800D03*
%TD*%
D17*
%TO.C,74HCT244-1*%
X61849000Y-52451000D03*
D14*
X61849000Y-54991000D03*
X61849000Y-57531000D03*
X61849000Y-60071000D03*
X61849000Y-62611000D03*
X61849000Y-65151000D03*
X61849000Y-67691000D03*
X61849000Y-70231000D03*
X61849000Y-72771000D03*
X61849000Y-75311000D03*
X69469000Y-75311000D03*
X69469000Y-72771000D03*
X69469000Y-70231000D03*
X69469000Y-67691000D03*
X69469000Y-65151000D03*
X69469000Y-62611000D03*
X69469000Y-60071000D03*
X69469000Y-57531000D03*
X69469000Y-54991000D03*
X69469000Y-52451000D03*
%TD*%
D10*
%TO.C,R0*%
X105970000Y-34290000D03*
X105970000Y-41910000D03*
%TD*%
%TO.C,R24*%
X38735000Y-100257429D03*
X46355000Y-100257429D03*
%TD*%
D15*
%TO.C,RN0*%
X35306000Y-83185000D03*
D14*
X37846000Y-83185000D03*
X40386000Y-83185000D03*
X42926000Y-83185000D03*
X45466000Y-83185000D03*
X48006000Y-83185000D03*
X50546000Y-83185000D03*
X53086000Y-83185000D03*
X55626000Y-83185000D03*
%TD*%
D10*
%TO.C,R42*%
X160550000Y-168310000D03*
X160550000Y-160690000D03*
%TD*%
D18*
%TO.C,PA*%
X131318000Y-172593000D03*
D19*
X131318000Y-170053000D03*
X131318000Y-167513000D03*
X131318000Y-164973000D03*
X131318000Y-162433000D03*
X131318000Y-159893000D03*
X131318000Y-157353000D03*
X131318000Y-154813000D03*
X131318000Y-152273000D03*
X131318000Y-149733000D03*
%TD*%
D11*
%TO.C,O4*%
X154880000Y-172970000D03*
D12*
X154880000Y-170430000D03*
%TD*%
D11*
%TO.C,O7*%
X168140000Y-172970000D03*
D12*
X168140000Y-170430000D03*
%TD*%
D11*
%TO.C,WAIT*%
X34095000Y-102358800D03*
D12*
X36635000Y-102358800D03*
%TD*%
D10*
%TO.C,R1*%
X102820000Y-34290000D03*
X102820000Y-41910000D03*
%TD*%
%TO.C,R31*%
X62738000Y-156210000D03*
X70358000Y-156210000D03*
%TD*%
D17*
%TO.C,Z80 CPU*%
X54610000Y-86365000D03*
D14*
X54610000Y-88905000D03*
X54610000Y-91445000D03*
X54610000Y-93985000D03*
X54610000Y-96525000D03*
X54610000Y-99065000D03*
X54610000Y-101605000D03*
X54610000Y-104145000D03*
X54610000Y-106685000D03*
X54610000Y-109225000D03*
X54610000Y-111765000D03*
X54610000Y-114305000D03*
X54610000Y-116845000D03*
X54610000Y-119385000D03*
X54610000Y-121925000D03*
X54610000Y-124465000D03*
X54610000Y-127005000D03*
X54610000Y-129545000D03*
X54610000Y-132085000D03*
X54610000Y-134625000D03*
X69850000Y-134625000D03*
X69850000Y-132085000D03*
X69850000Y-129545000D03*
X69850000Y-127005000D03*
X69850000Y-124465000D03*
X69850000Y-121925000D03*
X69850000Y-119385000D03*
X69850000Y-116845000D03*
X69850000Y-114305000D03*
X69850000Y-111765000D03*
X69850000Y-109225000D03*
X69850000Y-106685000D03*
X69850000Y-104145000D03*
X69850000Y-101605000D03*
X69850000Y-99065000D03*
X69850000Y-96525000D03*
X69850000Y-93985000D03*
X69850000Y-91445000D03*
X69850000Y-88905000D03*
X69850000Y-86365000D03*
%TD*%
D10*
%TO.C,R34*%
X62738000Y-144684700D03*
X70358000Y-144684700D03*
%TD*%
%TO.C,R46*%
X147950000Y-168310000D03*
X147950000Y-160690000D03*
%TD*%
D17*
%TO.C,74HCT244-0*%
X42926000Y-52451000D03*
D14*
X42926000Y-54991000D03*
X42926000Y-57531000D03*
X42926000Y-60071000D03*
X42926000Y-62611000D03*
X42926000Y-65151000D03*
X42926000Y-67691000D03*
X42926000Y-70231000D03*
X42926000Y-72771000D03*
X42926000Y-75311000D03*
X50546000Y-75311000D03*
X50546000Y-72771000D03*
X50546000Y-70231000D03*
X50546000Y-67691000D03*
X50546000Y-65151000D03*
X50546000Y-62611000D03*
X50546000Y-60071000D03*
X50546000Y-57531000D03*
X50546000Y-54991000D03*
X50546000Y-52451000D03*
%TD*%
D11*
%TO.C,A9*%
X75005000Y-29591000D03*
D12*
X75005000Y-32131000D03*
%TD*%
D10*
%TO.C,R17*%
X159131000Y-34290000D03*
X159131000Y-41910000D03*
%TD*%
D11*
%TO.C,D5*%
X147651000Y-29591000D03*
D12*
X147651000Y-32131000D03*
%TD*%
D10*
%TO.C,R27*%
X38735000Y-110707714D03*
X46355000Y-110707714D03*
%TD*%
D15*
%TO.C,CLOCK ch*%
X29210000Y-170047500D03*
D14*
X29210000Y-167547500D03*
X29210000Y-165047500D03*
X32410000Y-170047500D03*
X32410000Y-167547500D03*
X32410000Y-165047500D03*
%TD*%
D10*
%TO.C,R16*%
X162560000Y-34290000D03*
X162560000Y-41910000D03*
%TD*%
%TO.C,R38*%
X152140000Y-110750000D03*
X159760000Y-110750000D03*
%TD*%
D17*
%TO.C,D7-D0*%
X161798000Y-126238000D03*
D14*
X161798000Y-128778000D03*
X161798000Y-131318000D03*
X161798000Y-133858000D03*
X161798000Y-136398000D03*
X161798000Y-138938000D03*
X161798000Y-141478000D03*
X161798000Y-144018000D03*
X169418000Y-144018000D03*
X169418000Y-141478000D03*
X169418000Y-138938000D03*
X169418000Y-136398000D03*
X169418000Y-133858000D03*
X169418000Y-131318000D03*
X169418000Y-128778000D03*
X169418000Y-126238000D03*
%TD*%
D17*
%TO.C,74HCT244-3*%
X118618000Y-52451000D03*
D14*
X118618000Y-54991000D03*
X118618000Y-57531000D03*
X118618000Y-60071000D03*
X118618000Y-62611000D03*
X118618000Y-65151000D03*
X118618000Y-67691000D03*
X118618000Y-70231000D03*
X118618000Y-72771000D03*
X118618000Y-75311000D03*
X126238000Y-75311000D03*
X126238000Y-72771000D03*
X126238000Y-70231000D03*
X126238000Y-67691000D03*
X126238000Y-65151000D03*
X126238000Y-62611000D03*
X126238000Y-60071000D03*
X126238000Y-57531000D03*
X126238000Y-54991000D03*
X126238000Y-52451000D03*
%TD*%
D11*
%TO.C,A13*%
X57325000Y-29591000D03*
D12*
X57325000Y-32131000D03*
%TD*%
D11*
%TO.C,BUSACK*%
X34095000Y-124458800D03*
D12*
X36635000Y-124458800D03*
%TD*%
D11*
%TO.C,O3*%
X150460000Y-172970000D03*
D12*
X150460000Y-170430000D03*
%TD*%
D17*
%TO.C,74HCT244-4*%
X140589000Y-52451000D03*
D14*
X140589000Y-54991000D03*
X140589000Y-57531000D03*
X140589000Y-60071000D03*
X140589000Y-62611000D03*
X140589000Y-65151000D03*
X140589000Y-67691000D03*
X140589000Y-70231000D03*
X140589000Y-72771000D03*
X140589000Y-75311000D03*
X148209000Y-75311000D03*
X148209000Y-72771000D03*
X148209000Y-70231000D03*
X148209000Y-67691000D03*
X148209000Y-65151000D03*
X148209000Y-62611000D03*
X148209000Y-60071000D03*
X148209000Y-57531000D03*
X148209000Y-54991000D03*
X148209000Y-52451000D03*
%TD*%
D10*
%TO.C,R45*%
X151100000Y-168310000D03*
X151100000Y-160690000D03*
%TD*%
%TO.C,R32*%
X62738000Y-163893500D03*
X70358000Y-163893500D03*
%TD*%
D11*
%TO.C,A5*%
X92685000Y-29591000D03*
D12*
X92685000Y-32131000D03*
%TD*%
D11*
%TO.C,A3*%
X101525000Y-29591000D03*
D12*
X101525000Y-32131000D03*
%TD*%
D15*
%TO.C,RN8*%
X157480000Y-146558000D03*
D14*
X157480000Y-144018000D03*
X157480000Y-141478000D03*
X157480000Y-138938000D03*
X157480000Y-136398000D03*
X157480000Y-133858000D03*
X157480000Y-131318000D03*
X157480000Y-128778000D03*
X157480000Y-126238000D03*
%TD*%
D11*
%TO.C,O1*%
X141620000Y-172970000D03*
D12*
X141620000Y-170430000D03*
%TD*%
D11*
%TO.C,O6*%
X163720000Y-172970000D03*
D12*
X163720000Y-170430000D03*
%TD*%
D17*
%TO.C,CY7C199*%
X98044000Y-62103000D03*
D14*
X98044000Y-64643000D03*
X98044000Y-67183000D03*
X98044000Y-69723000D03*
X98044000Y-72263000D03*
X98044000Y-74803000D03*
X98044000Y-77343000D03*
X98044000Y-79883000D03*
X98044000Y-82423000D03*
X98044000Y-84963000D03*
X98044000Y-87503000D03*
X98044000Y-90043000D03*
X98044000Y-92583000D03*
X98044000Y-95123000D03*
X105664000Y-95123000D03*
X105664000Y-92583000D03*
X105664000Y-90043000D03*
X105664000Y-87503000D03*
X105664000Y-84963000D03*
X105664000Y-82423000D03*
X105664000Y-79883000D03*
X105664000Y-77343000D03*
X105664000Y-74803000D03*
X105664000Y-72263000D03*
X105664000Y-69723000D03*
X105664000Y-67183000D03*
X105664000Y-64643000D03*
X105664000Y-62103000D03*
%TD*%
D11*
%TO.C,D0*%
X169751000Y-29591000D03*
D12*
X169751000Y-32131000D03*
%TD*%
D11*
%TO.C,D2*%
X160911000Y-29591000D03*
D12*
X160911000Y-32131000D03*
%TD*%
D15*
%TO.C,RN5*%
X155905200Y-49885600D03*
D14*
X155905200Y-52425600D03*
X155905200Y-54965600D03*
X155905200Y-57505600D03*
X155905200Y-60045600D03*
X155905200Y-62585600D03*
X155905200Y-65125600D03*
X155905200Y-67665600D03*
X155905200Y-70205600D03*
%TD*%
D10*
%TO.C,R40*%
X62738000Y-148526500D03*
X70358000Y-148526500D03*
%TD*%
%TO.C,R4*%
X93370000Y-34290000D03*
X93370000Y-41910000D03*
%TD*%
%TO.C,R36*%
X62738000Y-160051700D03*
X70358000Y-160051700D03*
%TD*%
D11*
%TO.C,A4*%
X97105000Y-29591000D03*
D12*
X97105000Y-32131000D03*
%TD*%
D20*
%TO.C,FREQENCY*%
X29250000Y-147365000D03*
X34250000Y-149865000D03*
X29250000Y-152365000D03*
%TD*%
D11*
%TO.C,A10*%
X70585000Y-29591000D03*
D12*
X70585000Y-32131000D03*
%TD*%
D10*
%TO.C,R14*%
X61924000Y-34290000D03*
X61924000Y-41910000D03*
%TD*%
D17*
%TO.C,0.01uF*%
X34223900Y-138430000D03*
D14*
X36223900Y-138430000D03*
%TD*%
D10*
%TO.C,R20*%
X148844000Y-34290000D03*
X148844000Y-41910000D03*
%TD*%
D11*
%TO.C,A1*%
X110365000Y-29591000D03*
D12*
X110365000Y-32131000D03*
%TD*%
D10*
%TO.C,R9*%
X77620000Y-34290000D03*
X77620000Y-41910000D03*
%TD*%
%TO.C,R25*%
X38735000Y-103740857D03*
X46355000Y-103740857D03*
%TD*%
D11*
%TO.C,A7*%
X83845000Y-29591000D03*
D12*
X83845000Y-32131000D03*
%TD*%
D17*
%TO.C,74HCT244-6*%
X140843000Y-89662000D03*
D14*
X140843000Y-92202000D03*
X140843000Y-94742000D03*
X140843000Y-97282000D03*
X140843000Y-99822000D03*
X140843000Y-102362000D03*
X140843000Y-104902000D03*
X140843000Y-107442000D03*
X140843000Y-109982000D03*
X140843000Y-112522000D03*
X148463000Y-112522000D03*
X148463000Y-109982000D03*
X148463000Y-107442000D03*
X148463000Y-104902000D03*
X148463000Y-102362000D03*
X148463000Y-99822000D03*
X148463000Y-97282000D03*
X148463000Y-94742000D03*
X148463000Y-92202000D03*
X148463000Y-89662000D03*
%TD*%
D11*
%TO.C,D3*%
X156491000Y-29591000D03*
D12*
X156491000Y-32131000D03*
%TD*%
D17*
%TO.C,74HCT244-2*%
X80772000Y-52451000D03*
D14*
X80772000Y-54991000D03*
X80772000Y-57531000D03*
X80772000Y-60071000D03*
X80772000Y-62611000D03*
X80772000Y-65151000D03*
X80772000Y-67691000D03*
X80772000Y-70231000D03*
X80772000Y-72771000D03*
X80772000Y-75311000D03*
X88392000Y-75311000D03*
X88392000Y-72771000D03*
X88392000Y-70231000D03*
X88392000Y-67691000D03*
X88392000Y-65151000D03*
X88392000Y-62611000D03*
X88392000Y-60071000D03*
X88392000Y-57531000D03*
X88392000Y-54991000D03*
X88392000Y-52451000D03*
%TD*%
D10*
%TO.C,R11*%
X71374000Y-34290000D03*
X71374000Y-41910000D03*
%TD*%
D21*
%TO.C,RESET*%
X29770000Y-48550000D03*
X36270000Y-48550000D03*
X29770000Y-53050000D03*
X36270000Y-53050000D03*
%TD*%
D10*
%TO.C,R33*%
X62738000Y-140843000D03*
X70358000Y-140843000D03*
%TD*%
D11*
%TO.C,A6*%
X88265000Y-29591000D03*
D12*
X88265000Y-32131000D03*
%TD*%
D21*
%TO.C,WRITE*%
X162358000Y-110744000D03*
X168858000Y-110744000D03*
X162358000Y-115244000D03*
X168858000Y-115244000D03*
%TD*%
D11*
%TO.C,A14*%
X52905000Y-29591000D03*
D12*
X52905000Y-32131000D03*
%TD*%
D11*
%TO.C,CLK*%
X34095000Y-93518800D03*
D12*
X36635000Y-93518800D03*
%TD*%
D11*
%TO.C,A0*%
X114782600Y-29591000D03*
D12*
X114782600Y-32131000D03*
%TD*%
D10*
%TO.C,R19*%
X152273000Y-34290000D03*
X152273000Y-41910000D03*
%TD*%
D11*
%TO.C,A8*%
X79425000Y-29591000D03*
D12*
X79425000Y-32131000D03*
%TD*%
D10*
%TO.C,R22*%
X141986000Y-34290000D03*
X141986000Y-41910000D03*
%TD*%
%TO.C,R29*%
X38735000Y-117674571D03*
X46355000Y-117674571D03*
%TD*%
D11*
%TO.C,A11*%
X66165000Y-29591000D03*
D12*
X66165000Y-32131000D03*
%TD*%
D10*
%TO.C,R5*%
X90220000Y-34290000D03*
X90220000Y-41910000D03*
%TD*%
D11*
%TO.C,WR*%
X34095000Y-111198800D03*
D12*
X36635000Y-111198800D03*
%TD*%
D17*
%TO.C,Z80PIO*%
X85090000Y-114305000D03*
D14*
X85090000Y-116845000D03*
X85090000Y-119385000D03*
X85090000Y-121925000D03*
X85090000Y-124465000D03*
X85090000Y-127005000D03*
X85090000Y-129545000D03*
X85090000Y-132085000D03*
X85090000Y-134625000D03*
X85090000Y-137165000D03*
X85090000Y-139705000D03*
X85090000Y-142245000D03*
X85090000Y-144785000D03*
X85090000Y-147325000D03*
X85090000Y-149865000D03*
X85090000Y-152405000D03*
X85090000Y-154945000D03*
X85090000Y-157485000D03*
X85090000Y-160025000D03*
X85090000Y-162565000D03*
X100330000Y-162565000D03*
X100330000Y-160025000D03*
X100330000Y-157485000D03*
X100330000Y-154945000D03*
X100330000Y-152405000D03*
X100330000Y-149865000D03*
X100330000Y-147325000D03*
X100330000Y-144785000D03*
X100330000Y-142245000D03*
X100330000Y-139705000D03*
X100330000Y-137165000D03*
X100330000Y-134625000D03*
X100330000Y-132085000D03*
X100330000Y-129545000D03*
X100330000Y-127005000D03*
X100330000Y-124465000D03*
X100330000Y-121925000D03*
X100330000Y-119385000D03*
X100330000Y-116845000D03*
X100330000Y-114305000D03*
%TD*%
D11*
%TO.C,O0*%
X137200000Y-172970000D03*
D12*
X137200000Y-170430000D03*
%TD*%
D21*
%TO.C,GND*%
X37720000Y-35052000D03*
%TD*%
D10*
%TO.C,R6*%
X87070000Y-34290000D03*
X87070000Y-41910000D03*
%TD*%
%TO.C,R13*%
X65074000Y-34290000D03*
X65074000Y-41910000D03*
%TD*%
D11*
%TO.C,A12*%
X61745000Y-29591000D03*
D12*
X61745000Y-32131000D03*
%TD*%
D10*
%TO.C,R21*%
X145415000Y-34290000D03*
X145415000Y-41910000D03*
%TD*%
%TO.C,R35*%
X70358000Y-152368200D03*
X62738000Y-152368200D03*
%TD*%
D17*
%TO.C,UNE555P*%
X41915000Y-146304000D03*
D14*
X41915000Y-148844000D03*
X41915000Y-151384000D03*
X41915000Y-153924000D03*
X49535000Y-153924000D03*
X49535000Y-151384000D03*
X49535000Y-148844000D03*
X49535000Y-146304000D03*
%TD*%
D10*
%TO.C,R18*%
X155702000Y-34290000D03*
X155702000Y-41910000D03*
%TD*%
D17*
%TO.C,74HCT244-8*%
X140970000Y-126238000D03*
D14*
X140970000Y-128778000D03*
X140970000Y-131318000D03*
X140970000Y-133858000D03*
X140970000Y-136398000D03*
X140970000Y-138938000D03*
X140970000Y-141478000D03*
X140970000Y-144018000D03*
X140970000Y-146558000D03*
X140970000Y-149098000D03*
X148590000Y-149098000D03*
X148590000Y-146558000D03*
X148590000Y-144018000D03*
X148590000Y-141478000D03*
X148590000Y-138938000D03*
X148590000Y-136398000D03*
X148590000Y-133858000D03*
X148590000Y-131318000D03*
X148590000Y-128778000D03*
X148590000Y-126238000D03*
%TD*%
D10*
%TO.C,R43*%
X157400000Y-160690000D03*
X157400000Y-168310000D03*
%TD*%
D15*
%TO.C,RN3*%
X73406000Y-83185000D03*
D14*
X75946000Y-83185000D03*
X78486000Y-83185000D03*
X81026000Y-83185000D03*
X83566000Y-83185000D03*
X86106000Y-83185000D03*
X88646000Y-83185000D03*
X91186000Y-83185000D03*
X93726000Y-83185000D03*
%TD*%
D11*
%TO.C,D7*%
X138811000Y-29591000D03*
D12*
X138811000Y-32131000D03*
%TD*%
D15*
%TO.C,OSCILLATOR*%
X42164000Y-169418000D03*
D14*
X49784000Y-169418000D03*
X49784000Y-161798000D03*
X42164000Y-161798000D03*
%TD*%
D10*
%TO.C,R37*%
X62738000Y-167735200D03*
X70358000Y-167735200D03*
%TD*%
D21*
%TO.C,VCC*%
X43180000Y-35052000D03*
%TD*%
D17*
%TO.C,A7-A0*%
X162179000Y-52451000D03*
D14*
X162179000Y-54991000D03*
X162179000Y-57531000D03*
X162179000Y-60071000D03*
X162179000Y-62611000D03*
X162179000Y-65151000D03*
X162179000Y-67691000D03*
X162179000Y-70231000D03*
X169799000Y-70231000D03*
X169799000Y-67691000D03*
X169799000Y-65151000D03*
X169799000Y-62611000D03*
X169799000Y-60071000D03*
X169799000Y-57531000D03*
X169799000Y-54991000D03*
X169799000Y-52451000D03*
%TD*%
D10*
%TO.C,R15*%
X165989000Y-34290000D03*
X165989000Y-41910000D03*
%TD*%
%TO.C,R23*%
X38735000Y-96774000D03*
X46355000Y-96774000D03*
%TD*%
D17*
%TO.C,A14-A8*%
X162179000Y-81534000D03*
D14*
X162179000Y-84074000D03*
X162179000Y-86614000D03*
X162179000Y-89154000D03*
X162179000Y-91694000D03*
X162179000Y-94234000D03*
X162179000Y-96774000D03*
X162179000Y-99314000D03*
X169799000Y-99314000D03*
X169799000Y-96774000D03*
X169799000Y-94234000D03*
X169799000Y-91694000D03*
X169799000Y-89154000D03*
X169799000Y-86614000D03*
X169799000Y-84074000D03*
X169799000Y-81534000D03*
%TD*%
D10*
%TO.C,R8*%
X80770000Y-34290000D03*
X80770000Y-41910000D03*
%TD*%
%TO.C,R3*%
X96520000Y-34290000D03*
X96520000Y-41910000D03*
%TD*%
D17*
%TO.C,74HCT244-7*%
X118872000Y-127127000D03*
D14*
X118872000Y-129667000D03*
X118872000Y-132207000D03*
X118872000Y-134747000D03*
X118872000Y-137287000D03*
X118872000Y-139827000D03*
X118872000Y-142367000D03*
X118872000Y-144907000D03*
X118872000Y-147447000D03*
X118872000Y-149987000D03*
X126492000Y-149987000D03*
X126492000Y-147447000D03*
X126492000Y-144907000D03*
X126492000Y-142367000D03*
X126492000Y-139827000D03*
X126492000Y-137287000D03*
X126492000Y-134747000D03*
X126492000Y-132207000D03*
X126492000Y-129667000D03*
X126492000Y-127127000D03*
%TD*%
D10*
%TO.C,R39*%
X62738000Y-171577000D03*
X70358000Y-171577000D03*
%TD*%
D11*
%TO.C,D4*%
X152071000Y-29591000D03*
D12*
X152071000Y-32131000D03*
%TD*%
D22*
%TO.C,I7-I0*%
X105791000Y-172466000D03*
D14*
X108331000Y-172466000D03*
X110871000Y-172466000D03*
X113411000Y-172466000D03*
X115951000Y-172466000D03*
X118491000Y-172466000D03*
X121031000Y-172466000D03*
X123571000Y-172466000D03*
X123571000Y-164846000D03*
X121031000Y-164846000D03*
X118491000Y-164846000D03*
X115951000Y-164846000D03*
X113411000Y-164846000D03*
X110871000Y-164846000D03*
X108331000Y-164846000D03*
X105791000Y-164846000D03*
%TD*%
D11*
%TO.C,D6*%
X143231000Y-29591000D03*
D12*
X143231000Y-32131000D03*
%TD*%
D10*
%TO.C,R41*%
X163700000Y-168310000D03*
X163700000Y-160690000D03*
%TD*%
D11*
%TO.C,RD*%
X34095000Y-106778800D03*
D12*
X36635000Y-106778800D03*
%TD*%
M02*
