M48
; DRILL file {KiCad 9.0.4} date 2025-09-10T16:43:52+0900
; FORMAT={-:-/ absolute / metric / decimal}
; #@! TF.CreationDate,2025-09-10T16:43:52+09:00
; #@! TF.GenerationSoftware,Kicad,Pcbnew,9.0.4
; #@! TF.FileFunction,Plated,1,2,PTH
FMAT,2
METRIC
; #@! TA.AperFunction,Plated,PTH,ViaDrill
T1C0.300
; #@! TA.AperFunction,Plated,PTH,ComponentDrill
T2C0.700
; #@! TA.AperFunction,Plated,PTH,ComponentDrill
T3C0.800
; #@! TA.AperFunction,Plated,PTH,ComponentDrill
T4C0.900
; #@! TA.AperFunction,Plated,PTH,ComponentDrill
T5C1.000
; #@! TA.AperFunction,Plated,PTH,ComponentDrill
T6C1.100
; #@! TA.AperFunction,Plated,PTH,ComponentDrill
T7C1.300
%
G90
G05
T1
X39.103Y-73.423
X40.572Y-68.312
X42.026Y-110.435
X42.026Y-116.325
X42.026Y-119.27
X42.698Y-125.161
X44.903Y-81.297
X45.471Y-84.684
X46.159Y-81.806
X49.755Y-84.362
X50.775Y-155.804
X51.679Y-81.297
X52.008Y-84.586
X52.286Y-131.871
X54.478Y-160.502
X56.468Y-98.48
X57.052Y-158.128
X57.194Y-81.492
X57.531Y-83.185
X58.024Y-154.47
X61.155Y-158.867
X62.656Y-84.451
X63.186Y-86.89
X65.715Y-122.627
X66.257Y-153.824
X66.259Y-72.611
X66.259Y-106.966
X66.453Y-54.819
X66.617Y-86.202
X67.344Y-128.977
X68.169Y-131.051
X68.391Y-86.053
X70.699Y-69.432
X72.149Y-99.307
X72.284Y-77.071
X72.748Y-84.629
X78.486Y-109.678
X79.049Y-105.8
X80.349Y-136.911
X80.885Y-104.144
X82.329Y-115.734
X83.485Y-121.669
X84.534Y-99.307
X84.711Y-61.589
X85.019Y-164.142
X86.875Y-109.678
X86.875Y-172.282
X87.558Y-98.386
X88.221Y-85.642
X89.033Y-154.221
X89.82Y-169.337
X89.864Y-89.864
X90.242Y-51.156
X91.791Y-44.669
X92.616Y-106.966
X95.588Y-77.396
X95.746Y-81.146
X99.291Y-93.83
X99.646Y-95.42
X100.757Y-60.557
X101.665Y-95.419
X101.927Y-57.097
X101.946Y-62.306
X102.101Y-128.967
X102.101Y-163.008
X102.229Y-164.599
X102.419Y-93.293
X102.446Y-61.385
X103.931Y-103.505
X105.062Y-154.73
X105.435Y-147.0
X105.565Y-145.634
X107.156Y-76.863
X107.51Y-145.796
X107.641Y-104.665
X107.681Y-91.539
X107.717Y-151.925
X109.554Y-89.275
X110.009Y-78.014
X110.435Y-154.612
X110.453Y-142.851
X110.804Y-160.502
X112.789Y-78.353
X113.372Y-57.402
X113.38Y-107.49
X113.38Y-175.172
X113.407Y-157.532
X113.505Y-163.01
X115.886Y-135.568
X116.023Y-160.502
X116.274Y-104.694
X116.324Y-132.368
X116.332Y-83.599
X117.44Y-131.701
X117.56Y-157.984
X117.569Y-130.245
X118.712Y-114.305
X118.836Y-84.364
X119.271Y-48.588
X119.977Y-163.009
X120.178Y-159.636
X121.446Y-130.062
X121.661Y-111.661
X122.213Y-128.106
X122.217Y-45.643
X122.364Y-72.056
X122.808Y-102.135
X122.942Y-125.496
X122.969Y-87.518
X123.036Y-46.463
X124.502Y-75.438
X124.93Y-89.539
X125.161Y-44.857
X125.653Y-77.141
X127.617Y-168.668
X128.003Y-64.446
X128.372Y-95.092
X128.535Y-72.121
X128.598Y-168.608
X128.636Y-91.633
X131.051Y-49.374
X131.837Y-47.759
X133.579Y-148.387
X133.996Y-44.857
X134.782Y-47.387
X136.64Y-143.132
X137.556Y-59.745
X138.082Y-143.799
X138.4Y-141.5
X138.634Y-104.995
X138.872Y-144.934
X139.017Y-57.621
X139.561Y-50.432
X139.869Y-122.233
X139.958Y-123.776
X141.739Y-86.952
X141.945Y-83.403
X142.741Y-87.696
X142.8Y-146.5
X142.832Y-83.203
X142.832Y-116.621
X144.6Y-149.2
X145.243Y-90.469
X145.455Y-122.216
X145.655Y-69.204
X147.9Y-151.6
X151.1Y-149.6
X152.155Y-137.456
X168.783Y-147.193
T2
X38.735Y-96.774
X38.735Y-100.257
X38.735Y-103.741
X38.735Y-107.224
X38.735Y-110.708
X38.735Y-114.191
X38.735Y-117.675
X38.735Y-121.158
X46.355Y-96.774
X46.355Y-100.257
X46.355Y-103.741
X46.355Y-107.224
X46.355Y-110.708
X46.355Y-114.191
X46.355Y-117.675
X46.355Y-121.158
X61.924Y-34.29
X61.924Y-41.91
X62.738Y-140.843
X62.738Y-144.685
X62.738Y-148.526
X62.738Y-152.368
X62.738Y-156.21
X62.738Y-160.052
X62.738Y-163.893
X62.738Y-167.735
X62.738Y-171.577
X65.074Y-34.29
X65.074Y-41.91
X68.224Y-34.29
X68.224Y-41.91
X70.358Y-140.843
X70.358Y-144.685
X70.358Y-148.526
X70.358Y-152.368
X70.358Y-156.21
X70.358Y-160.052
X70.358Y-163.893
X70.358Y-167.735
X70.358Y-171.577
X71.374Y-34.29
X71.374Y-41.91
X74.47Y-34.29
X74.47Y-41.91
X77.62Y-34.29
X77.62Y-41.91
X80.77Y-34.29
X80.77Y-41.91
X83.92Y-34.29
X83.92Y-41.91
X87.07Y-34.29
X87.07Y-41.91
X90.22Y-34.29
X90.22Y-41.91
X93.37Y-34.29
X93.37Y-41.91
X96.52Y-34.29
X96.52Y-41.91
X99.67Y-34.29
X99.67Y-41.91
X102.82Y-34.29
X102.82Y-41.91
X105.97Y-34.29
X105.97Y-41.91
X141.65Y-160.69
X141.65Y-168.31
X141.986Y-34.29
X141.986Y-41.91
X144.8Y-160.69
X144.8Y-168.31
X145.415Y-34.29
X145.415Y-41.91
X147.95Y-160.69
X147.95Y-168.31
X148.844Y-34.29
X148.844Y-41.91
X151.1Y-160.69
X151.1Y-168.31
X152.14Y-110.75
X152.273Y-34.29
X152.273Y-41.91
X154.25Y-160.69
X154.25Y-168.31
X155.702Y-34.29
X155.702Y-41.91
X157.4Y-160.69
X157.4Y-168.31
X159.131Y-34.29
X159.131Y-41.91
X159.76Y-110.75
X160.55Y-160.69
X160.55Y-168.31
X162.56Y-34.29
X162.56Y-41.91
X163.7Y-160.69
X163.7Y-168.31
X165.989Y-34.29
X165.989Y-41.91
T3
X29.21Y-165.047
X29.21Y-167.547
X29.21Y-170.047
X29.743Y-62.23
X29.743Y-64.77
X29.743Y-67.31
X32.41Y-165.047
X32.41Y-167.547
X32.41Y-170.047
X34.224Y-138.43
X35.306Y-83.185
X36.224Y-138.43
X36.281Y-75.311
X37.846Y-83.185
X38.281Y-75.311
X39.859Y-46.939
X40.386Y-83.185
X41.859Y-46.939
X41.915Y-146.304
X41.915Y-148.844
X41.915Y-151.384
X41.915Y-153.924
X42.164Y-161.798
X42.164Y-169.418
X42.926Y-52.451
X42.926Y-54.991
X42.926Y-57.531
X42.926Y-60.071
X42.926Y-62.611
X42.926Y-65.151
X42.926Y-67.691
X42.926Y-70.231
X42.926Y-72.771
X42.926Y-75.311
X42.926Y-83.185
X44.806Y-138.405
X45.466Y-83.185
X46.806Y-138.405
X48.006Y-83.185
X49.535Y-146.304
X49.535Y-148.844
X49.535Y-151.384
X49.535Y-153.924
X49.784Y-161.798
X49.784Y-169.418
X50.546Y-52.451
X50.546Y-54.991
X50.546Y-57.531
X50.546Y-60.071
X50.546Y-62.611
X50.546Y-65.151
X50.546Y-67.691
X50.546Y-70.231
X50.546Y-72.771
X50.546Y-75.311
X50.546Y-83.185
X53.086Y-83.185
X54.356Y-80.01
X54.61Y-86.365
X54.61Y-88.905
X54.61Y-91.445
X54.61Y-93.985
X54.61Y-96.525
X54.61Y-99.065
X54.61Y-101.605
X54.61Y-104.145
X54.61Y-106.685
X54.61Y-109.225
X54.61Y-111.765
X54.61Y-114.305
X54.61Y-116.845
X54.61Y-119.385
X54.61Y-121.925
X54.61Y-124.465
X54.61Y-127.005
X54.61Y-129.545
X54.61Y-132.085
X54.61Y-134.625
X55.626Y-83.185
X56.896Y-80.01
X59.436Y-80.01
X61.849Y-52.451
X61.849Y-54.991
X61.849Y-57.531
X61.849Y-60.071
X61.849Y-62.611
X61.849Y-65.151
X61.849Y-67.691
X61.849Y-70.231
X61.849Y-72.771
X61.849Y-75.311
X61.976Y-80.01
X64.516Y-80.01
X67.056Y-80.01
X69.469Y-52.451
X69.469Y-54.991
X69.469Y-57.531
X69.469Y-60.071
X69.469Y-62.611
X69.469Y-65.151
X69.469Y-67.691
X69.469Y-70.231
X69.469Y-72.771
X69.469Y-75.311
X69.596Y-80.01
X69.85Y-86.365
X69.85Y-88.905
X69.85Y-91.445
X69.85Y-93.985
X69.85Y-96.525
X69.85Y-99.065
X69.85Y-101.605
X69.85Y-104.145
X69.85Y-106.685
X69.85Y-109.225
X69.85Y-111.765
X69.85Y-114.305
X69.85Y-116.845
X69.85Y-119.385
X69.85Y-121.925
X69.85Y-124.465
X69.85Y-127.005
X69.85Y-129.545
X69.85Y-132.085
X69.85Y-134.625
X72.136Y-80.01
X73.406Y-83.185
X74.676Y-80.01
X75.946Y-83.185
X78.486Y-83.185
X80.772Y-52.451
X80.772Y-54.991
X80.772Y-57.531
X80.772Y-60.071
X80.772Y-62.611
X80.772Y-65.151
X80.772Y-67.691
X80.772Y-70.231
X80.772Y-72.771
X80.772Y-75.311
X81.026Y-83.185
X83.566Y-83.185
X85.09Y-114.305
X85.09Y-116.845
X85.09Y-119.385
X85.09Y-121.925
X85.09Y-124.465
X85.09Y-127.005
X85.09Y-129.545
X85.09Y-132.085
X85.09Y-134.625
X85.09Y-137.165
X85.09Y-139.705
X85.09Y-142.245
X85.09Y-144.785
X85.09Y-147.325
X85.09Y-149.865
X85.09Y-152.405
X85.09Y-154.945
X85.09Y-157.485
X85.09Y-160.025
X85.09Y-162.565
X86.106Y-83.185
X88.392Y-52.451
X88.392Y-54.991
X88.392Y-57.531
X88.392Y-60.071
X88.392Y-62.611
X88.392Y-65.151
X88.392Y-67.691
X88.392Y-70.231
X88.392Y-72.771
X88.392Y-75.311
X88.646Y-83.185
X91.186Y-83.185
X93.726Y-83.185
X98.044Y-62.103
X98.044Y-64.643
X98.044Y-67.183
X98.044Y-69.723
X98.044Y-72.263
X98.044Y-74.803
X98.044Y-77.343
X98.044Y-79.883
X98.044Y-82.423
X98.044Y-84.963
X98.044Y-87.503
X98.044Y-90.043
X98.044Y-92.583
X98.044Y-95.123
X100.33Y-114.305
X100.33Y-116.845
X100.33Y-119.385
X100.33Y-121.925
X100.33Y-124.465
X100.33Y-127.005
X100.33Y-129.545
X100.33Y-132.085
X100.33Y-134.625
X100.33Y-137.165
X100.33Y-139.705
X100.33Y-142.245
X100.33Y-144.785
X100.33Y-147.325
X100.33Y-149.865
X100.33Y-152.405
X100.33Y-154.945
X100.33Y-157.485
X100.33Y-160.025
X100.33Y-162.565
X105.664Y-62.103
X105.664Y-64.643
X105.664Y-67.183
X105.664Y-69.723
X105.664Y-72.263
X105.664Y-74.803
X105.664Y-77.343
X105.664Y-79.883
X105.664Y-82.423
X105.664Y-84.963
X105.664Y-87.503
X105.664Y-90.043
X105.664Y-92.583
X105.664Y-95.123
X105.791Y-164.846
X105.791Y-172.466
X108.331Y-164.846
X108.331Y-172.466
X110.871Y-164.846
X110.871Y-172.466
X111.252Y-81.534
X113.411Y-164.846
X113.411Y-172.466
X113.792Y-81.534
X115.951Y-164.846
X115.951Y-172.466
X116.332Y-81.534
X118.491Y-164.846
X118.491Y-172.466
X118.618Y-52.451
X118.618Y-54.991
X118.618Y-57.531
X118.618Y-60.071
X118.618Y-62.611
X118.618Y-65.151
X118.618Y-67.691
X118.618Y-70.231
X118.618Y-72.771
X118.618Y-75.311
X118.745Y-89.535
X118.745Y-92.075
X118.745Y-94.615
X118.745Y-97.155
X118.745Y-99.695
X118.745Y-102.235
X118.745Y-104.775
X118.745Y-107.315
X118.745Y-109.855
X118.745Y-112.395
X118.872Y-81.534
X118.872Y-127.127
X118.872Y-129.667
X118.872Y-132.207
X118.872Y-134.747
X118.872Y-137.287
X118.872Y-139.827
X118.872Y-142.367
X118.872Y-144.907
X118.872Y-147.447
X118.872Y-149.987
X121.031Y-164.846
X121.031Y-172.466
X121.412Y-81.534
X123.571Y-164.846
X123.571Y-172.466
X123.952Y-81.534
X126.238Y-52.451
X126.238Y-54.991
X126.238Y-57.531
X126.238Y-60.071
X126.238Y-62.611
X126.238Y-65.151
X126.238Y-67.691
X126.238Y-70.231
X126.238Y-72.771
X126.238Y-75.311
X126.365Y-89.535
X126.365Y-92.075
X126.365Y-94.615
X126.365Y-97.155
X126.365Y-99.695
X126.365Y-102.235
X126.365Y-104.775
X126.365Y-107.315
X126.365Y-109.855
X126.365Y-112.395
X126.492Y-81.534
X126.492Y-127.127
X126.492Y-129.667
X126.492Y-132.207
X126.492Y-134.747
X126.492Y-137.287
X126.492Y-139.827
X126.492Y-142.367
X126.492Y-144.907
X126.492Y-147.447
X126.492Y-149.987
X129.032Y-81.534
X131.572Y-81.534
X135.89Y-147.193
X135.89Y-149.733
X135.89Y-152.273
X135.89Y-154.813
X135.89Y-157.353
X135.89Y-159.893
X135.89Y-162.433
X135.89Y-164.973
X135.89Y-167.513
X140.589Y-52.451
X140.589Y-54.991
X140.589Y-57.531
X140.589Y-60.071
X140.589Y-62.611
X140.589Y-65.151
X140.589Y-67.691
X140.589Y-70.231
X140.589Y-72.771
X140.589Y-75.311
X140.843Y-89.662
X140.843Y-92.202
X140.843Y-94.742
X140.843Y-97.282
X140.843Y-99.822
X140.843Y-102.362
X140.843Y-104.902
X140.843Y-107.442
X140.843Y-109.982
X140.843Y-112.522
X140.97Y-126.238
X140.97Y-128.778
X140.97Y-131.318
X140.97Y-133.858
X140.97Y-136.398
X140.97Y-138.938
X140.97Y-141.478
X140.97Y-144.018
X140.97Y-146.558
X140.97Y-149.098
X148.209Y-52.451
X148.209Y-54.991
X148.209Y-57.531
X148.209Y-60.071
X148.209Y-62.611
X148.209Y-65.151
X148.209Y-67.691
X148.209Y-70.231
X148.209Y-72.771
X148.209Y-75.311
X148.463Y-89.662
X148.463Y-92.202
X148.463Y-94.742
X148.463Y-97.282
X148.463Y-99.822
X148.463Y-102.362
X148.463Y-104.902
X148.463Y-107.442
X148.463Y-109.982
X148.463Y-112.522
X148.59Y-126.238
X148.59Y-128.778
X148.59Y-131.318
X148.59Y-133.858
X148.59Y-136.398
X148.59Y-138.938
X148.59Y-141.478
X148.59Y-144.018
X148.59Y-146.558
X148.59Y-149.098
X155.88Y-78.969
X155.88Y-81.509
X155.88Y-84.049
X155.88Y-86.589
X155.88Y-89.129
X155.88Y-91.669
X155.88Y-94.209
X155.88Y-96.749
X155.88Y-99.289
X155.905Y-49.886
X155.905Y-52.426
X155.905Y-54.966
X155.905Y-57.506
X155.905Y-60.046
X155.905Y-62.586
X155.905Y-65.126
X155.905Y-67.666
X155.905Y-70.206
X157.48Y-126.238
X157.48Y-128.778
X157.48Y-131.318
X157.48Y-133.858
X157.48Y-136.398
X157.48Y-138.938
X157.48Y-141.478
X157.48Y-144.018
X157.48Y-146.558
X161.798Y-126.238
X161.798Y-128.778
X161.798Y-131.318
X161.798Y-133.858
X161.798Y-136.398
X161.798Y-138.938
X161.798Y-141.478
X161.798Y-144.018
X162.179Y-52.451
X162.179Y-54.991
X162.179Y-57.531
X162.179Y-60.071
X162.179Y-62.611
X162.179Y-65.151
X162.179Y-67.691
X162.179Y-70.231
X162.179Y-81.534
X162.179Y-84.074
X162.179Y-86.614
X162.179Y-89.154
X162.179Y-91.694
X162.179Y-94.234
X162.179Y-96.774
X162.179Y-99.314
X169.418Y-126.238
X169.418Y-128.778
X169.418Y-131.318
X169.418Y-133.858
X169.418Y-136.398
X169.418Y-138.938
X169.418Y-141.478
X169.418Y-144.018
X169.799Y-52.451
X169.799Y-54.991
X169.799Y-57.531
X169.799Y-60.071
X169.799Y-62.611
X169.799Y-65.151
X169.799Y-67.691
X169.799Y-70.231
X169.799Y-81.534
X169.799Y-84.074
X169.799Y-86.614
X169.799Y-89.154
X169.799Y-91.694
X169.799Y-94.234
X169.799Y-96.774
X169.799Y-99.314
T4
X34.095Y-93.519
X34.095Y-97.939
X34.095Y-102.359
X34.095Y-106.779
X34.095Y-111.199
X34.095Y-115.619
X34.095Y-120.039
X34.095Y-124.459
X36.635Y-93.519
X36.635Y-97.939
X36.635Y-102.359
X36.635Y-106.779
X36.635Y-111.199
X36.635Y-115.619
X36.635Y-120.039
X36.635Y-124.459
X52.905Y-29.591
X52.905Y-32.131
X57.325Y-29.591
X57.325Y-32.131
X61.745Y-29.591
X61.745Y-32.131
X66.165Y-29.591
X66.165Y-32.131
X70.585Y-29.591
X70.585Y-32.131
X75.005Y-29.591
X75.005Y-32.131
X79.425Y-29.591
X79.425Y-32.131
X83.845Y-29.591
X83.845Y-32.131
X88.265Y-29.591
X88.265Y-32.131
X92.685Y-29.591
X92.685Y-32.131
X97.105Y-29.591
X97.105Y-32.131
X101.525Y-29.591
X101.525Y-32.131
X105.945Y-29.591
X105.945Y-32.131
X110.365Y-29.591
X110.365Y-32.131
X114.783Y-29.591
X114.783Y-32.131
X137.2Y-170.43
X137.2Y-172.97
X138.811Y-29.591
X138.811Y-32.131
X141.62Y-170.43
X141.62Y-172.97
X143.231Y-29.591
X143.231Y-32.131
X146.04Y-170.43
X146.04Y-172.97
X147.651Y-29.591
X147.651Y-32.131
X150.46Y-170.43
X150.46Y-172.97
X152.071Y-29.591
X152.071Y-32.131
X154.88Y-170.43
X154.88Y-172.97
X156.491Y-29.591
X156.491Y-32.131
X159.3Y-170.43
X159.3Y-172.97
X160.911Y-29.591
X160.911Y-32.131
X163.72Y-170.43
X163.72Y-172.97
X165.331Y-29.591
X165.331Y-32.131
X168.14Y-170.43
X168.14Y-172.97
X169.751Y-29.591
X169.751Y-32.131
T5
X37.72Y-35.052
X43.18Y-35.052
X131.318Y-149.733
X131.318Y-152.273
X131.318Y-154.813
X131.318Y-157.353
X131.318Y-159.893
X131.318Y-162.433
X131.318Y-164.973
X131.318Y-167.513
X131.318Y-170.053
X131.318Y-172.593
X173.355Y-149.733
X173.355Y-152.273
X173.355Y-154.813
X173.355Y-157.353
X173.355Y-159.893
X173.355Y-162.433
X173.355Y-164.973
X173.355Y-167.513
X173.355Y-170.053
X173.355Y-172.593
T6
X29.77Y-48.55
X29.77Y-53.05
X36.27Y-48.55
X36.27Y-53.05
X162.358Y-110.744
X162.358Y-115.244
X168.858Y-110.744
X168.858Y-115.244
T7
X29.25Y-147.365
X29.25Y-152.365
X34.25Y-149.865
M30
